PathFileType  4	(X/Y/Z) C:\Users\antoi\Documents\MyRepositories\mobilecap\ResultsAnalysis
DataRate	CameraRate	NumFrames	NumMarkers	Units	OrigDataRate	OrigDataStartFrame	OrigNumFrames
100.0	100.0	5	55	mm	100.0	1	265
Frame#	Time	r_knee			r_shank_antsup			r_ankle			r_calc			r_5meta			r_toe			L_knee			L_shank_antsup			L_ankle			L_calc			L_5meta			L_toe			r_mknee			r_mankle			L_mknee			L_mankle			r_sh2			r_sh3			r_sh4			L_sh2			L_sh3			r_thigh1			r_thigh2			r_thigh3			r_thigh4			r_thigh5			L_thigh1			L_thigh2			L_thigh3			L_thigh4			r.ASIS			r.PSIS			L.ASIS			L.PSIS			C7			R_Shoulder			L_Shoulder			R_Sternum			L_Sternum			R_humerus			R_elbow_med			R_elbow_lat			R_forearm			R_wrist_radius			R_wrist_ulna			L_humerus			L_elbow_med			L_elbow_lat			L_forearm			L_wrist_radius			L_wrist_ulna			R_HJC			L_HJC			R_HJC_reg			L_HJC_reg			
		X1	Y1	Z1	X2	Y2	Z2	X3	Y3	Z3	X4	Y4	Z4	X5	Y5	Z5	X6	Y6	Z6	X7	Y7	Z7	X8	Y8	Z8	X9	Y9	Z9	X10	Y10	Z10	X11	Y11	Z11	X12	Y12	Z12	X13	Y13	Z13	X14	Y14	Z14	X15	Y15	Z15	X16	Y16	Z16	X17	Y17	Z17	X18	Y18	Z18	X19	Y19	Z19	X20	Y20	Z20	X21	Y21	Z21	X22	Y22	Z22	X23	Y23	Z23	X24	Y24	Z24	X25	Y25	Z25	X26	Y26	Z26	X27	Y27	Z27	X28	Y28	Z28	X29	Y29	Z29	X30	Y30	Z30	X31	Y31	Z31	X32	Y32	Z32	X33	Y33	Z33	X34	Y34	Z34	X35	Y35	Z35	X36	Y36	Z36	X37	Y37	Z37	X38	Y38	Z38	X39	Y39	Z39	X40	Y40	Z40	X41	Y41	Z41	X42	Y42	Z42	X43	Y43	Z43	X44	Y44	Z44	X45	Y45	Z45	X46	Y46	Z46	X47	Y47	Z47	X48	Y48	Z48	X49	Y49	Z49	X50	Y50	Z50	X51	Y51	Z51	X52	Y52	Z52	X53	Y53	Z53	X54	Y54	Z54	X55	Y55	Z55	

1	0.00000000	-206.41739	501.66321	-391.87786	-173.77737	433.79048	-402.74995	-250.80730	98.77085	-366.18321	-321.02939	63.91379	-394.28203	-144.60964	45.79569	-335.65097	-102.21602	69.95718	-396.00576	-215.63530	497.56982	-731.90416	-192.95636	410.29343	-741.46459	-254.88615	101.16803	-740.60205	-320.56986	62.57752	-698.88981	-151.10547	42.86097	-788.13580	-110.20578	62.93700	-732.44121	-209.85361	486.97443	-513.57154	-239.78784	104.96637	-444.35162	-212.63868	487.40330	-608.82156	-224.96325	100.22996	-664.61485	-198.15944	326.55531	-365.80764	-248.53608	452.51914	-371.44844	-269.77081	343.34689	-355.46913	-279.95703	422.09857	-745.96691	-283.26199	300.51220	-761.95294	-131.70518	820.94904	-387.78375	-136.54938	709.22449	-390.10299	-193.69325	686.92949	-360.47889	-243.54939	824.43187	-367.82796	-246.68935	707.45075	-369.38719	-163.30871	765.86432	-765.05331	-166.73099	628.13538	-747.82074	-276.66255	767.11231	-735.51034	-272.31372	626.66101	-726.20081	-113.30384	978.76460	-439.10256	-309.33666	1013.90467	-524.27870	-105.74662	958.89758	-692.03369	-312.97265	1009.57274	-620.82341	-327.18858	1419.29126	-584.34736	-228.58108	1390.83386	-403.18532	-254.73614	1391.07666	-763.75836	-188.16499	1402.07532	-563.35907	-184.32801	1405.51620	-604.25592	-207.78950	1248.82250	-350.36789	-266.17942	1043.12509	-403.95723	-241.71136	1053.91891	-337.99939	-160.95824	936.32004	-334.64290	-117.47526	806.84685	-342.60683	-139.94231	797.64331	-316.66217	-225.26004	1272.45593	-816.61774	-264.50355	1041.74183	-743.01586	-236.05635	1056.09631	-815.04120	-164.05023	966.18794	-800.04556	-118.06498	813.28289	-791.94505	-138.01266	807.26892	-814.81103	-191.63527	897.92651	-460.58733	-188.85179	886.52039	-666.72412	-181.50555	899.54437	-468.53078	-187.80387	892.04054	-635.76707	
2	0.01000000	-206.36882	501.68195	-391.90408	-173.70584	433.78123	-402.75218	-250.80476	98.73669	-366.16684	-320.95923	63.91233	-394.23933	-144.58296	45.87422	-335.59168	-102.19591	70.02571	-396.06858	-215.68612	497.61996	-732.01690	-192.98875	410.26825	-741.46342	-254.87460	101.15036	-740.61321	-320.57614	62.51598	-698.85938	-151.10585	42.85343	-788.14854	-110.21845	62.94836	-732.40997	-209.80039	486.90149	-513.54900	-239.78803	104.92738	-444.35094	-212.64920	487.39042	-608.84354	-224.97579	100.30489	-664.64647	-198.29545	326.49098	-365.81245	-248.50689	452.54088	-371.46729	-269.81381	343.37726	-355.46614	-279.97493	422.07735	-745.97416	-283.45760	300.12103	-761.93899	-131.68906	820.96428	-387.78495	-136.46286	709.09468	-390.09537	-193.70158	686.96244	-360.51998	-243.59333	824.42054	-367.84705	-246.76959	707.36293	-369.42138	-163.31487	765.85653	-765.06319	-166.75913	628.12366	-747.82269	-276.62930	767.15796	-735.57377	-272.38034	626.71012	-726.27281	-113.31415	978.83758	-439.08445	-309.44656	1013.91654	-524.32420	-105.78182	958.89337	-692.04527	-312.94170	1009.57545	-620.84351	-327.13593	1419.25185	-584.24176	-228.56917	1390.82364	-403.17794	-254.76767	1391.06494	-763.75981	-188.17515	1402.14545	-563.37069	-184.30669	1405.58989	-604.38860	-207.75603	1248.86960	-350.35599	-266.11610	1043.14499	-403.96863	-241.74431	1053.71956	-338.00168	-160.94987	936.26740	-334.71866	-117.54004	806.79401	-342.74556	-139.97347	797.64409	-316.76046	-225.33582	1272.44892	-816.61242	-264.52047	1041.75620	-743.07876	-236.11385	1056.09634	-815.04220	-164.09335	966.17822	-800.05505	-118.13377	813.29028	-791.97378	-138.05067	807.25040	-814.81971	-191.66553	897.97980	-460.57463	-188.85944	886.51698	-666.70796	-181.63344	899.53963	-468.61170	-187.69061	892.01642	-635.87901	
3	0.02000000	-206.30688	501.68514	-391.90840	-173.64082	433.78494	-402.77165	-250.77829	98.70921	-366.14239	-320.91999	63.91373	-394.23177	-144.55917	45.90762	-335.57224	-102.21510	70.02840	-396.09674	-215.72103	497.64132	-732.09108	-193.03197	410.23001	-741.43913	-254.87577	101.14068	-740.61135	-320.56226	62.50210	-698.84165	-151.10810	42.84770	-788.15296	-110.22181	62.94122	-732.41788	-209.62444	486.77088	-513.38597	-239.78770	104.90820	-444.34942	-212.65688	487.38428	-608.84753	-224.98094	100.31352	-664.65988	-198.25469	326.48498	-365.81681	-248.46148	452.56191	-371.47292	-269.49706	343.26766	-355.35477	-279.99565	422.06266	-745.96155	-283.40305	300.24076	-761.94464	-131.69624	820.98650	-387.78756	-136.40113	709.02826	-390.12895	-193.69374	686.97047	-360.52835	-243.62156	824.42814	-367.82830	-246.78386	707.33289	-369.44709	-163.31495	765.85548	-765.06129	-166.78033	628.11385	-747.82572	-276.62958	767.18277	-735.60636	-272.43286	626.73595	-726.30788	-113.35917	978.85352	-439.06166	-309.46178	1013.89398	-524.41098	-105.81294	958.88712	-692.05466	-312.93454	1009.56413	-620.85730	-327.15691	1419.25942	-584.24094	-228.58709	1390.80106	-403.20193	-254.81252	1391.06722	-763.80412	-188.19282	1402.14339	-563.36468	-184.32631	1405.56022	-604.34305	-207.75250	1248.86045	-350.34188	-266.05942	1043.13196	-403.96155	-241.76955	1053.66219	-337.99234	-160.95229	936.25727	-334.77358	-117.54716	806.79195	-342.83380	-139.96041	797.65391	-316.80374	-225.44366	1272.46848	-816.62320	-264.54751	1041.73117	-743.04888	-236.17300	1056.10259	-815.03514	-164.14490	966.17699	-800.06699	-118.21068	813.26793	-791.97885	-138.09410	807.23288	-814.82356	-191.69996	897.98366	-460.58568	-188.85733	886.50429	-666.71760	-181.67010	899.51054	-468.61369	-187.69400	892.00002	-635.90545	
4	0.03000000	-206.24409	501.66204	-391.95061	-173.56657	433.78664	-402.80476	-250.69294	98.73861	-366.07678	-320.90780	63.92030	-394.24650	-144.55000	45.90896	-335.56579	-102.24263	69.99555	-396.09264	-215.74477	497.64685	-732.14885	-193.06061	410.20520	-741.42064	-254.88306	101.13903	-740.60311	-320.54460	62.53028	-698.85783	-151.11052	42.84627	-788.15186	-110.21943	62.93431	-732.43865	-209.41274	486.65081	-513.15470	-239.78475	104.90821	-444.35090	-212.65093	487.39046	-608.82782	-224.96496	100.33266	-664.63802	-198.12204	326.49203	-365.82446	-248.39371	452.58138	-371.46893	-269.32197	343.31630	-355.32285	-280.00595	422.04292	-745.92978	-283.27101	300.51283	-761.95085	-131.70085	820.99582	-387.78809	-136.39179	709.11718	-390.06535	-193.68326	686.93698	-360.50482	-243.65039	824.41607	-367.82440	-246.74036	707.34522	-369.46332	-163.32103	765.86584	-765.05554	-166.80081	628.11260	-747.82857	-276.66167	767.19568	-735.55234	-272.47232	626.73727	-726.31002	-113.41024	978.84152	-439.06416	-309.45351	1013.87699	-524.42792	-105.84083	958.88466	-692.05878	-312.97048	1009.54389	-620.85496	-327.22825	1419.27259	-584.28532	-228.60908	1390.78285	-403.22105	-254.87243	1391.06718	-763.83782	-188.21030	1402.10062	-563.35463	-184.35384	1405.50828	-604.26221	-207.77193	1248.81914	-350.34085	-266.04219	1043.06764	-403.92738	-241.77896	1053.66953	-337.96122	-160.95979	936.26442	-334.80399	-117.53962	806.79899	-342.88915	-139.92327	797.66712	-316.80940	-225.55103	1272.50343	-816.64360	-264.59118	1041.71495	-742.97980	-236.23491	1056.11324	-815.02192	-164.21689	966.19458	-800.09633	-118.28482	813.25617	-791.90584	-138.16450	807.18980	-814.77706	-191.72639	897.96852	-460.59292	-188.87838	886.49457	-666.72507	-181.66692	899.51446	-468.58044	-187.76848	891.99701	-635.87009	
5	0.04000000	-206.18687	501.62783	-392.03596	-173.48921	433.77432	-402.82983	-250.61025	98.78921	-366.00991	-320.92572	63.93738	-394.26605	-144.55500	45.90698	-335.55460	-102.24535	69.98071	-396.08569	-215.76461	497.64593	-732.16888	-193.05156	410.22546	-741.43527	-254.88051	101.13800	-740.60198	-320.53443	62.56093	-698.89454	-151.11059	42.84791	-788.15110	-110.21830	62.94042	-732.43541	-209.26068	486.55734	-512.98900	-239.78061	104.91069	-444.35898	-212.65883	487.38635	-608.82747	-224.95801	100.36127	-664.60080	-198.02978	326.45152	-365.81898	-248.33332	452.60242	-371.47013	-269.66985	343.68912	-355.54815	-280.00358	422.02482	-745.90699	-283.25328	300.54817	-761.96433	-131.70075	820.98347	-387.77921	-136.50121	709.27971	-389.85057	-193.68927	686.88100	-360.49101	-243.69494	824.34963	-367.91457	-246.70759	707.36042	-369.45934	-163.34449	765.88599	-765.05762	-166.82598	628.12312	-747.83520	-276.71319	767.17832	-735.51308	-272.51814	626.73541	-726.31569	-113.44027	978.83948	-439.10954	-309.50293	1013.91215	-524.34123	-105.86682	958.88559	-692.05855	-313.05608	1009.53587	-620.83732	-327.25760	1419.24985	-584.26482	-228.59389	1390.78326	-403.21308	-254.91325	1391.07686	-763.81927	-188.21696	1402.08245	-563.34049	-184.37154	1405.51271	-604.25805	-207.78551	1248.78900	-350.35585	-266.07781	1043.02146	-403.90302	-241.77203	1053.65500	-337.92325	-160.96008	936.26800	-334.82476	-117.55077	806.78099	-342.93764	-139.90001	797.66827	-316.81824	-225.62336	1272.52434	-816.65951	-264.64662	1041.73661	-742.94308	-236.29754	1056.12070	-815.00884	-164.30573	966.23141	-800.14565	-118.33331	813.31958	-791.71800	-138.25217	807.13394	-814.68753	-191.75247	897.97635	-460.58073	-188.94825	886.49936	-666.71330	-181.69402	899.59494	-468.56505	-187.85253	892.00973	-635.81942	
